<?xml version="1.0" encoding="UTF-8"?>
<svg width="1024" height="1024" viewBox="0 0 1024 1024" xmlns="http://www.w3.org/2000/svg">
  <defs>
    <linearGradient id="bgGradient" x1="0%" y1="0%" x2="0%" y2="100%">
      <stop offset="0%" stop-color="#13141C"/>
      <stop offset="100%" stop-color="#0B0C10"/>
    </linearGradient>
    <linearGradient id="dotGradient" x1="0%" y1="0%" x2="100%" y2="100%">
      <stop offset="0%" stop-color="#00FAC2"/>
      <stop offset="100%" stop-color="#00DC82"/>
    </linearGradient>
  </defs>

  <rect width="1024" height="1024" rx="220" ry="220" fill="url(#bgGradient)"/>

  <g>
    <rect x="272" y="192" width="480" height="640" rx="28" ry="28" fill="#121317" stroke="#FFFFFF" stroke-opacity="0.06" stroke-width="2" transform="rotate(-8 512 512)"/>
  </g>
  <g>
    <rect x="272" y="192" width="480" height="640" rx="28" ry="28" fill="#181A22" stroke="#FFFFFF" stroke-opacity="0.08" stroke-width="2"/>
  </g>
  <g transform="rotate(4 512 512)">
    <rect x="272" y="192" width="480" height="640" rx="28" ry="28" fill="#242633" stroke="#FFFFFF" stroke-opacity="0.14" stroke-width="2"/>
    <rect x="332" y="280" width="200" height="24" rx="6" ry="6" fill="#0D0E12"/>
    <rect x="332" y="328" width="320" height="16" rx="4" ry="4" fill="#0D0E12" fill-opacity="0.7"/>
    <rect x="332" y="364" width="280" height="16" rx="4" ry="4" fill="#0D0E12" fill-opacity="0.7"/>
    <circle cx="700" cy="780" r="60" fill="url(#dotGradient)"/>
    <circle cx="700" cy="780" r="60" fill="none" stroke="#FFFFFF" stroke-opacity="0.25" stroke-width="2"/>
  </g>

  <rect x="2" y="2" width="1020" height="1020" rx="218" ry="218" fill="none" stroke="url(#bgGradient)" stroke-opacity="0" stroke-width="0"/>
  <rect x="1" y="1" width="1022" height="1022" rx="221" ry="221" fill="none" stroke="#FFFFFF" stroke-opacity="0.08" stroke-width="2"/>
</svg>
